<?xml version="1.0" encoding="UTF-8"?>
<!DOCTYPE svg PUBLIC "-//W3C//DTD SVG 1.1//EN" "http://www.w3.org/Graphics/SVG/1.1/DTD/svg11.dtd">
<!-- Creator: CorelDRAW 2021 (64-Bit) -->
<svg xmlns="http://www.w3.org/2000/svg" xml:space="preserve" width="1.6583in" height="1.65825in" version="1.1" style="shape-rendering:geometricPrecision; text-rendering:geometricPrecision; image-rendering:optimizeQuality; fill-rule:evenodd; clip-rule:evenodd"
viewBox="0 0 562.55 562.53"
 xmlns:xlink="http://www.w3.org/1999/xlink"
 xmlns:xodm="http://www.corel.com/coreldraw/odm/2003">
 <defs>
  <style type="text/css">
   <![CDATA[
    .fil0 {fill:#083759;fill-rule:nonzero;fill-opacity:0.450980}
    .fil1 {fill:#00F6FF;fill-rule:nonzero;fill-opacity:0.611765}
   ]]>
  </style>
 </defs>
 <g id="Layer_x0020_1">
  <metadata id="CorelCorpID_0Corel-Layer"/>
  <path class="fil0" d="M281.26 562.53c-21.63,0 -43.23,-8.21 -59.74,-24.61l-20.53 -20.53c-7.97,-7.93 -18.63,-12.33 -29.93,-12.35l-28.89 0c-46.69,0 -84.69,-38 -84.69,-84.69l0 -28.92c-0.03,-11.27 -4.42,-21.94 -12.37,-29.96l-20.2 -20.16c-33.08,-32.88 -33.22,-86.64 -0.31,-119.74l20.53 -20.56c7.93,-7.96 12.32,-18.62 12.35,-29.92l0 -28.86c0,-46.72 38,-84.73 84.69,-84.73l28.91 0c11.28,0 21.92,-4.38 29.93,-12.4l20.23 -20.17c32.87,-33.08 86.61,-33.25 119.74,-0.31l20.54 20.54c7.99,7.96 18.62,12.34 29.9,12.34l28.91 0c46.69,0 84.69,38 84.69,84.73l0 28.89c0.03,11.28 4.42,21.94 12.37,29.96l20.2 20.2c16,15.92 24.86,37.13 24.95,59.78 0.05,22.5 -8.61,43.68 -24.39,59.68 -0.28,0.29 -0.53,0.6 -0.81,0.84l-19.97 19.97c-7.93,7.96 -12.32,18.63 -12.35,29.93l0 28.89c0,46.69 -38,84.69 -84.69,84.69l-28.91 0c-11.28,0.02 -21.94,4.42 -29.93,12.37l-20.22 20.2c-16.49,16.59 -38.26,24.93 -60,24.93z"/>
  <g id="_2213210694304">
   <path class="fil1" d="M223.49 151.46l11.03 1.2 -2.6 23.96 6.04 0.66c8.79,0.85 20.34,4.65 34.75,11.43l-5.2 47.92 -10.41 -1.13c-0.29,-26.24 -9.05,-42.5 -26.29,-48.78l-8.16 75.24c4.53,4.32 9.72,8.87 15.58,13.65 14.93,12.36 23.82,22.04 26.68,29 2.86,6.96 3.91,13.93 3.14,21.02 -1.39,12.82 -7.6,24 -18.68,33.49 -11.03,9.54 -24.23,16.51 -39.53,20.86l-2.84 26.17 -11.03 -1.2 2.6 -23.96 -9.75 -0.74c-13.82,-1.5 -28.68,-6.62 -44.64,-15.37l5.88 -54.23 10.4 1.13c0.58,34.88 13.64,54.59 39.2,59.12l9.01 -83.07c-23.32,-19.28 -36.78,-32.91 -40.44,-40.86 -3.66,-7.95 -5.11,-15.6 -4.31,-23.01 1.28,-11.82 7.62,-22.25 19.07,-31.21 11.45,-8.97 24.04,-14.3 37.73,-16.06l2.74 -25.22zm-11.05 101.83l7.35 -67.78c-8.12,-0.14 -15.16,2.02 -21.02,6.54 -5.86,4.52 -9.25,10.8 -10.11,18.73 -0.76,6.99 0.82,14.02 4.79,20.99 3.97,7.02 10.32,14.2 18.99,21.52zm6.5 42.97l-8.05 74.25c18.78,-2.53 29.14,-12.84 31.11,-30.97 0.82,-7.57 -0.67,-14.91 -4.47,-22.02 -3.81,-7.06 -10,-14.16 -18.59,-21.26z"/>
   <path class="fil1" d="M337.15 403.19l15.81 -145.75 -34.34 -3.72 60.24 -90.28 39.48 101.09 -34.34 -3.72 -15.81 145.75 -31.05 -3.37zm7.91 -72.88m-9.26 -74.74m12.95 -47m49.86 5.41m2.57 48.68m-25.08 71.01m-23.43 71.19"/>
  </g>
 </g>
</svg>
